HIERARCHY
ROOT Hips
{
	OFFSET -0.001795 -0.223333 0.028219
	CHANNELS 6 Xposition Yposition Zposition Zrotation Yrotation Xrotation 
	JOINT LeftUpLeg
	{
		OFFSET 0.069520 -0.091406 -0.006815
		CHANNELS 3 Zrotation Yrotation Xrotation
		JOINT LeftLeg
		{
			OFFSET 0.034277 -0.375199 -0.004496
			CHANNELS 3 Zrotation Yrotation Xrotation
			JOINT LeftFoot
			{
				OFFSET -0.013596 -0.397961 -0.043693
				CHANNELS 3 Zrotation Yrotation Xrotation
				JOINT LeftToe
				{
					OFFSET 0.026358 -0.055791 0.119288
					CHANNELS 3 Zrotation Yrotation Xrotation
					End Site
					{
						OFFSET 0.000000 0.000000 0.000000
					}
				}
			}
		}
	}
	JOINT RightUpLeg
	{
		OFFSET -0.067670 -0.090522 -0.004320
		CHANNELS 3 Zrotation Yrotation Xrotation
		JOINT RightLeg
		{
			OFFSET -0.038290 -0.382569 -0.008850
			CHANNELS 3 Zrotation Yrotation Xrotation
			JOINT RightFoot
			{
				OFFSET 0.015774 -0.398415 -0.042312
				CHANNELS 3 Zrotation Yrotation Xrotation
				JOINT RightToe
				{
					OFFSET -0.025372 -0.048144 0.123348
					CHANNELS 3 Zrotation Yrotation Xrotation
					End Site
					{
						OFFSET 0.000000 0.000000 0.000000
					}
				}
			}
		}
	}
	JOINT Spine
	{
		OFFSET -0.002533 0.108963 -0.026696
		CHANNELS 3 Zrotation Yrotation Xrotation
		JOINT Spine1
		{
			OFFSET 0.005487 0.135180 0.001092
			CHANNELS 3 Zrotation Yrotation Xrotation
			JOINT Spine2
			{
				OFFSET 0.001457 0.052922 0.025425
				CHANNELS 3 Zrotation Yrotation Xrotation
				JOINT Neck
				{
					OFFSET -0.002778 0.213870 -0.042857
					CHANNELS 3 Zrotation Yrotation Xrotation
					JOINT Head
					{
						OFFSET 0.005152 0.064970 0.051349
						CHANNELS 3 Zrotation Yrotation Xrotation
						End Site
						{
							OFFSET 0.000000 0.000000 0.000000
						}
					}
				}
				JOINT LeftShoulder
				{
					OFFSET 0.078845 0.121749 -0.034090
					CHANNELS 3 Zrotation Yrotation Xrotation
					JOINT LeftArm
					{
						OFFSET 0.090977 0.030469 -0.008868
						CHANNELS 3 Zrotation Yrotation Xrotation
						JOINT LeftForeArm
						{
							OFFSET 0.259612 -0.012772 -0.027456
							CHANNELS 3 Zrotation Yrotation Xrotation
							JOINT LeftHand
							{
								OFFSET 0.249234 0.008986 -0.001171
								CHANNELS 3 Zrotation Yrotation Xrotation
								End Site
								{
									OFFSET 0.000000 0.000000 0.000000
								}
							}
						}
					}
				}
				JOINT RightShoulder
				{
					OFFSET -0.081759 0.118833 -0.038615
					CHANNELS 3 Zrotation Yrotation Xrotation
					JOINT RightArm
					{
						OFFSET -0.096012 0.032551 -0.009143
						CHANNELS 3 Zrotation Yrotation Xrotation
						JOINT RightForeArm
						{
							OFFSET -0.253742 -0.013329 -0.021401
							CHANNELS 3 Zrotation Yrotation Xrotation
							JOINT RightHand
							{
								OFFSET -0.255298 0.007772 -0.005559
								CHANNELS 3 Zrotation Yrotation Xrotation
								End Site
								{
									OFFSET 0.000000 0.000000 0.000000
								}
							}
						}
					}
				}
			}
		}
	}
}
MOTION
Frames: 10
Frame Time: 0.050000
0.000000 0.967421 0.000000 1.984042 2.727919 7.835917 4.802054 -0.376088 -4.156928 -3.004808 0.329990 -3.576016 3.988873 14.173433 30.370150 0.000000 0.000000 0.000000 -5.144727 0.687165 -9.479414 1.616368 -0.147693 1.213222 -2.114123 -9.649547 17.170805 0.000000 0.000000 0.000000 6.666719 -1.994054 16.941140 -2.894335 1.349858 -18.000507 -3.006041 0.679829 26.810609 11.549771 -4.097613 -29.779198 0.000000 0.000000 0.000000 -18.141557 -30.147378 14.708797 -59.444190 -38.458557 11.332178 12.286516 -10.598487 -0.577263 0.000000 0.000000 0.000000 19.880447 17.944900 9.642620 54.345846 41.809475 12.322959 -17.009388 9.039357 -0.410510 0.000000 0.000000 0.000000 
-0.002696 0.966579 0.001597 1.942004 2.466908 8.719571 5.093602 -0.398250 -4.427334 -2.112897 0.293022 -5.225002 2.187671 12.514504 33.031512 0.000000 0.000000 0.000000 -5.709692 0.742409 -10.922634 3.252314 -0.339519 1.481010 -2.783343 -10.993992 18.208127 0.000000 0.000000 0.000000 6.717547 -1.925937 16.081645 -1.918883 1.063595 -17.989465 -4.009817 1.314681 27.195379 13.782649 -5.059614 -30.742975 0.000000 0.000000 0.000000 -20.078146 -30.582344 15.314814 -57.910775 -38.027211 10.616094 11.936152 -9.621559 -0.494299 0.000000 0.000000 0.000000 21.454758 17.374290 9.714797 55.383445 43.104589 13.351760 -18.694046 7.537423 -0.238954 0.000000 0.000000 0.000000 
-0.005335 0.966846 0.002963 1.838762 2.790086 8.115455 5.383538 -0.374801 -4.011986 -2.615161 0.311177 -4.418947 3.059258 13.326541 31.726812 0.000000 0.000000 0.000000 -5.182397 0.685636 -9.404575 2.495276 -0.267094 0.356142 -2.143547 -9.849893 18.057459 0.000000 0.000000 0.000000 7.193070 -2.070963 16.636753 -3.084077 1.402915 -17.672571 -3.814502 0.485898 26.285710 13.414063 -5.348917 -28.580319 0.000000 0.000000 0.000000 -19.172699 -29.536058 14.674708 -58.445446 -38.723198 11.215349 11.798251 -6.558181 -0.283279 0.000000 0.000000 0.000000 21.869837 16.965973 9.311882 54.255777 42.515785 12.685615 -15.666696 5.853012 -0.043157 0.000000 0.000000 0.000000 
-0.007946 0.966733 0.003933 1.910960 3.128954 8.106473 5.182332 -0.363383 -3.715762 -1.761876 0.261390 -4.662997 2.059077 12.203826 31.148935 0.000000 0.000000 0.000000 -5.326788 0.671255 -9.377399 2.847827 -0.312545 0.117075 -2.277672 -10.165641 18.917716 0.000000 0.000000 0.000000 7.736364 -2.102311 15.979545 -4.084288 1.706265 -16.952652 -3.942572 0.206172 26.582819 13.940667 -5.519399 -29.304090 0.000000 0.000000 0.000000 -19.394434 -30.897529 15.501051 -58.831536 -38.056578 10.963327 12.895303 -7.034122 -0.362506 0.000000 0.000000 0.000000 22.535737 16.621122 9.165646 53.957320 42.982500 12.782442 -15.515076 4.941235 0.053028 0.000000 0.000000 0.000000 
-0.010576 0.967249 0.004422 1.987935 3.415576 7.795029 5.305720 -0.354700 -3.528306 -1.862778 0.262438 -4.435018 2.038145 12.239666 31.215402 0.000000 0.000000 0.000000 -5.009356 0.645689 -8.718565 2.636890 -0.294065 -0.095902 -2.514416 -10.430471 18.444860 0.000000 0.000000 0.000000 7.515817 -2.114944 16.423379 -3.981703 1.684063 -17.166691 -4.017654 -0.253443 26.610526 12.880432 -4.996691 -29.194127 0.000000 0.000000 0.000000 -20.006356 -30.525548 15.519242 -57.918580 -37.811718 10.552010 12.152636 -6.863341 -0.318904 0.000000 0.000000 0.000000 22.045006 16.825802 9.120549 53.876778 43.101146 12.828518 -14.388108 3.574926 0.171296 0.000000 0.000000 0.000000 
-0.012982 0.967537 0.004258 2.067572 3.661846 7.925434 5.339915 -0.374836 -3.874184 -1.723952 0.246916 -4.088389 1.769041 11.956777 31.043681 0.000000 0.000000 0.000000 -4.979086 0.654588 -8.907007 2.832625 -0.316711 -0.052275 -2.827856 -10.935739 18.627987 0.000000 0.000000 0.000000 7.446490 -2.122476 16.510325 -4.256623 1.761279 -17.580056 -3.878089 -0.535426 26.842153 12.585570 -4.785047 -29.641968 0.000000 0.000000 0.000000 -20.213789 -30.529062 15.620123 -57.728174 -37.636064 10.376962 12.414464 -7.405469 -0.365838 0.000000 0.000000 0.000000 21.914895 16.617743 8.936374 53.991635 42.728515 12.647836 -14.264324 3.989392 0.131957 0.000000 0.000000 0.000000 
-0.015048 0.967535 0.003597 2.141853 3.724555 7.887967 5.647611 -0.381524 -3.980223 -1.982688 0.262311 -4.051205 1.378797 11.616260 31.541340 0.000000 0.000000 0.000000 -4.906779 0.656671 -8.914919 2.884980 -0.324593 -0.173813 -3.048066 -11.324072 18.876332 0.000000 0.000000 0.000000 7.208634 -2.095925 16.661172 -4.135725 1.725623 -17.814041 -4.004272 -0.585820 26.897397 12.508979 -4.677058 -29.989543 0.000000 0.000000 0.000000 -20.710410 -30.001303 15.448584 -57.433214 -37.118705 9.982861 12.569463 -7.946255 -0.407954 0.000000 0.000000 0.000000 22.070352 16.603676 8.956678 54.180291 42.601097 12.632139 -14.513210 4.626837 0.075613 0.000000 0.000000 0.000000 
-0.016715 0.967380 0.002745 2.112283 3.675620 7.752179 5.769350 -0.383669 -4.063906 -2.051076 0.262547 -3.749316 1.608310 11.857210 31.525454 0.000000 0.000000 0.000000 -4.649117 0.675369 -9.048908 2.957502 -0.331815 -0.126267 -3.624219 -12.344374 19.402874 0.000000 0.000000 0.000000 7.116749 -2.083798 16.745045 -4.321455 1.779835 -17.725723 -3.842814 -0.546230 26.893143 12.629904 -4.724505 -30.094647 0.000000 0.000000 0.000000 -20.459638 -29.534710 15.109460 -57.329466 -36.012568 9.318185 12.555663 -10.041707 -0.553130 0.000000 0.000000 0.000000 22.127042 16.123190 8.678845 54.353302 41.951230 12.336676 -15.397989 6.423946 -0.097365 0.000000 0.000000 0.000000 
-0.017983 0.967381 0.001882 2.208705 3.638636 7.861156 5.837684 -0.385973 -4.084214 -2.009166 0.262561 -3.923404 1.069151 11.250055 31.498518 0.000000 0.000000 0.000000 -4.655453 0.687163 -9.250487 3.011393 -0.340918 -0.427117 -3.934739 -12.935144 20.154803 0.000000 0.000000 0.000000 6.867588 -2.061351 16.951568 -4.150840 1.727272 -17.914318 -3.806679 -0.239900 26.832887 12.440808 -4.515280 -30.392304 0.000000 0.000000 0.000000 -20.755531 -28.642340 14.585260 -56.967809 -34.800274 8.538480 12.051725 -12.029287 -0.643858 0.000000 0.000000 0.000000 22.246552 15.624133 8.499214 54.291130 41.751935 12.194797 -16.303184 8.063108 -0.271593 0.000000 0.000000 0.000000 
-0.018972 0.967533 0.001096 2.353847 3.742600 7.946924 5.887406 -0.395036 -4.236682 -2.016681 0.260702 -3.801671 0.409657 10.497304 31.294941 0.000000 0.000000 0.000000 -4.699491 0.691152 -9.385222 3.073978 -0.349272 -0.510427 -4.292923 -13.508561 20.390907 0.000000 0.000000 0.000000 6.749698 -2.049845 17.013465 -4.384842 1.794222 -17.982982 -3.597192 -0.250164 26.770709 12.638717 -4.463352 -31.124804 0.000000 0.000000 0.000000 -20.623607 -27.783899 14.047290 -57.002705 -33.238596 7.684335 11.323237 -15.130655 -0.748023 0.000000 0.000000 0.000000 22.450485 15.166628 8.276150 54.257710 41.265822 11.914786 -16.959496 9.942581 -0.487639 0.000000 0.000000 0.000000 
